<svg width="15" height="17" viewBox="0 0 15 17" fill="none" xmlns="http://www.w3.org/2000/svg">
<path fill-rule="evenodd" clip-rule="evenodd" d="M7.68244 8.4522L0 4.01367L0.0899701 11.986L7.68244 16.8844V8.4522Z" fill="#B3926F"/>
<path fill-rule="evenodd" clip-rule="evenodd" d="M7.68244 0.0151367L14.985 4.23373L7.68244 8.45232L3.18894 5.85819L0 4.0138L7.68244 0.0151367Z" fill="#D0B08E"/>
<path fill-rule="evenodd" clip-rule="evenodd" d="M14.97 12.6409L14.955 4.21375L7.66742 8.42235V16.8545L7.7124 16.8645L14.97 12.6409Z" fill="#947451"/>
<path fill-rule="evenodd" clip-rule="evenodd" d="M7.68256 8.57721L14.9851 4.3936V4.23365L14.9102 4.19366L7.68256 8.36728V8.57721Z" fill="#A98C6D"/>
<path fill-rule="evenodd" clip-rule="evenodd" d="M0.0849717 3.96875L7.68244 8.36729V8.57722L0 4.16369L0.0849717 3.96875Z" fill="#C09F7D"/>
<path fill-rule="evenodd" clip-rule="evenodd" d="M3.13892 2.37941L4.70839 1.54968L12.1259 5.88324L10.5615 6.78793L3.13892 2.37941Z" fill="#DDC5AC"/>
<path fill-rule="evenodd" clip-rule="evenodd" d="M11.2913 6.19308L11.4313 6.08312C11.5663 5.97815 11.6112 5.96816 11.7712 5.93317C11.6212 6.05313 11.4513 6.1381 11.3163 6.24307C11.2814 6.22307 11.2714 6.20308 11.2863 6.19308H11.2913Z" fill="white"/>
<path fill-rule="evenodd" clip-rule="evenodd" d="M10.6014 6.60281L10.7414 6.49285C10.8763 6.38788 10.9213 6.37788 11.0813 6.3429C10.9313 6.46286 10.7614 6.54783 10.6264 6.6528C10.5914 6.6328 10.5814 6.61281 10.5964 6.60281H10.6014Z" fill="white"/>
<path fill-rule="evenodd" clip-rule="evenodd" d="M7.73731 8.54728L14.9849 4.39366V4.37367L14.9699 4.2887L7.69733 8.4873L7.73731 8.54728Z" fill="#714B3C"/>
<path fill-rule="evenodd" clip-rule="evenodd" d="M11.906 7.91226L11.7411 8.27714L11.4962 8.11719L11.3512 8.41709L11.1363 8.29713L10.9713 8.66701L10.7914 8.49207L10.6114 8.85694L10.5615 6.78763L12.1259 5.88293V7.98224L11.906 7.91226Z" fill="#A58869"/>
<path d="M3.90363 2.00952L11.3711 6.31809L11.3112 6.35307L3.85864 2.04451L3.90363 2.00952Z" fill="#9B7B58"/>
<path fill-rule="evenodd" clip-rule="evenodd" d="M7.63254 16.8545L7.60754 8.53231L7.68252 8.41235L7.81747 8.49733V16.7846L7.63254 16.8545Z" fill="#A98966"/>
<path d="M14.9999 4.24374V12.6259C14.9999 12.6459 14.9949 12.6609 14.9699 12.6759L7.65738 16.8995L0.0848999 11.9912L7.65738 16.8345L14.94 12.6309V4.21375L14.9999 4.24873V4.24374Z" fill="#675341"/>
<path d="M7.68245 0.0499834L0.0549817 4.04865L0 4.01367L7.65246 0H7.71244L9.49184 1.02966L9.49684 1.06465L9.46685 1.07964L7.68245 0.0499834Z" fill="#675341"/>
</svg>
